<svg width="241" height="41" viewBox="0 0 241 41" fill="none" xmlns="http://www.w3.org/2000/svg">
<path fill-rule="evenodd" clip-rule="evenodd" d="M66.454 34.9834C65.3016 34.6781 64.078 34.1835 62.7815 33.4994V29.4698C63.7176 30.2516 64.8635 30.8802 66.2198 31.3562C67.5756 31.8327 68.9978 32.0704 70.4863 32.0704C71.9506 32.0704 73.0544 31.7657 73.7984 31.1547C74.5424 30.5448 74.9147 29.6774 74.9147 28.5536C74.9147 27.7971 74.6983 27.174 74.2662 26.6853C73.8346 26.1973 73.2945 25.7938 72.6465 25.4765C71.9981 25.1592 71.0863 24.7803 69.9101 24.3406L69.1181 24.0474C67.7979 23.5835 66.7119 23.1076 65.8594 22.619C65.0075 22.1304 64.2938 21.4342 63.7176 20.5306C63.1414 19.627 62.8532 18.4669 62.8532 17.05C62.8532 15.8779 63.1414 14.7667 63.7176 13.716C64.2938 12.6663 65.1937 11.8055 66.4184 11.1335C67.642 10.4615 69.178 10.1261 71.0264 10.1261C72.3703 10.1261 73.4925 10.254 74.393 10.5104C75.2929 10.7668 76.3665 11.201 77.615 11.811V15.7681C76.3908 14.9863 75.3344 14.4066 74.4464 14.0278C73.5583 13.649 72.5025 13.4596 71.2783 13.4596C69.8616 13.4596 68.7815 13.7527 68.0385 14.3391C67.294 14.9248 66.9217 15.6945 66.9217 16.647C66.9217 17.4529 67.1257 18.1068 67.5341 18.6069C67.942 19.1082 68.4755 19.5106 69.1365 19.8164C69.7957 20.1216 70.7501 20.4817 71.9981 20.8968C73.4623 21.3854 74.6805 21.8921 75.6527 22.4169C76.6249 22.9429 77.4224 23.6626 78.0471 24.5789C78.6713 25.4946 78.9832 26.6612 78.9832 28.0776C78.9832 29.421 78.6891 30.6485 78.1011 31.7591C77.5125 32.8708 76.6007 33.7624 75.3652 34.4338C74.1286 35.1052 72.5861 35.4412 70.7383 35.4412C69.0334 35.4412 67.6064 35.2886 66.454 34.9834Z" fill="#3D8FFF"/>
<path fill-rule="evenodd" clip-rule="evenodd" d="M86.2084 20.3476C85.5013 21.0267 85.0412 22.1788 84.8286 23.803H93.4243C93.2594 22.2513 92.8348 21.1177 92.151 20.4021C91.4672 19.6876 90.4649 19.3295 89.1445 19.3295C87.8946 19.3295 86.9161 19.669 86.2084 20.3476ZM95.3171 18.9474C96.602 20.7787 97.2328 23.3424 97.2095 26.6397H84.7587C84.8758 28.4345 85.3889 29.7981 86.2969 30.7312C87.2044 31.6653 88.4951 32.1318 90.1707 32.1318C91.2552 32.1318 92.2931 31.9923 93.2833 31.7133C94.274 31.4348 95.1454 31.0772 95.9007 30.6407V34.2045C94.0614 35.0286 91.9507 35.4412 89.5691 35.4412C86.9039 35.4412 84.8111 34.6111 83.2904 32.9499C81.7691 31.2892 81.0084 28.931 81.0084 25.8762C81.0084 22.7484 81.7277 20.3541 83.1663 18.6929C84.605 17.0323 86.633 16.2017 89.2505 16.2017C92.0095 16.2017 94.0317 17.1167 95.3171 18.9474Z" fill="#3D8FFF"/>
<path fill-rule="evenodd" clip-rule="evenodd" d="M109.895 32.1251C110.499 31.9067 110.8 31.4693 110.8 30.8135V27.279C109.617 26.7445 108.316 26.4769 106.899 26.4769C105.576 26.4769 104.571 26.7205 103.886 27.2059C103.201 27.6918 102.859 28.4208 102.859 29.3922C102.859 30.4127 103.247 31.1777 104.025 31.6877C104.803 32.1977 105.727 32.4533 106.795 32.4533C108.258 32.4533 109.291 32.3435 109.895 32.1251ZM112.455 17.641C113.791 18.6009 114.447 20.1495 114.424 22.2867V31.0319C114.424 32.6842 113.727 33.832 112.334 34.4752C110.94 35.1184 108.954 35.4412 106.377 35.4412C104.309 35.4412 102.602 34.9912 101.255 34.093C99.9087 33.1942 99.2353 31.6877 99.2353 29.5746C99.2353 27.5826 99.7871 26.0887 100.89 25.0927C101.993 24.0968 103.555 23.5988 105.576 23.5988C107.665 23.5988 109.407 24.0362 110.8 24.9104V23.1614C110.8 20.6835 109.372 19.4446 106.516 19.4446C105.494 19.4446 104.472 19.6084 103.451 19.9365C102.428 20.2641 101.581 20.7201 100.907 21.3027V17.7322C101.557 17.2948 102.504 16.9301 103.747 16.639C104.989 16.3469 106.273 16.2017 107.596 16.2017C109.5 16.2017 111.12 16.6816 112.455 17.641Z" fill="#3D8FFF"/>
<path fill-rule="evenodd" clip-rule="evenodd" d="M118.475 18.227C119.177 17.8245 120.368 17.3863 122.05 16.9124C123.73 16.4391 125.398 16.2017 127.054 16.2017C128.058 16.2017 128.911 16.3561 129.613 16.6633V19.648C128.911 19.5538 128.071 19.5059 127.092 19.5059C125.437 19.5059 123.88 19.6246 122.426 19.8615V34.4285H118.475V18.227Z" fill="#3D8FFF"/>
<path fill-rule="evenodd" clip-rule="evenodd" d="M131.093 33.197C129.432 31.7015 128.601 29.2854 128.601 25.9504C128.601 22.5167 129.419 20.0339 131.058 18.5009C132.695 16.9684 134.775 16.2017 137.297 16.2017C139.206 16.2017 141.021 16.5693 142.742 17.3052V20.7632C140.95 19.9788 139.313 19.5863 137.828 19.5863C135.966 19.5863 134.575 20.0708 133.656 21.0394C132.737 22.0085 132.277 23.547 132.277 25.656C132.277 27.8632 132.725 29.4762 133.621 30.4932C134.516 31.5113 135.954 32.0196 137.934 32.0196C139.537 32.0196 141.151 31.615 142.777 30.8057V34.2637C141.08 35.0487 139.265 35.4412 137.333 35.4412C134.835 35.4412 132.755 34.6931 131.093 33.197Z" fill="#3D8FFF"/>
<path fill-rule="evenodd" clip-rule="evenodd" d="M162.017 23.402V34.4285H158.177V23.8632C158.177 22.4213 157.823 21.322 157.116 20.5655C156.409 19.8094 155.36 19.4311 153.97 19.4311C152.483 19.4311 151.045 19.8211 149.655 20.6011L149.619 34.4285H145.815V9.1134H149.655V17.6938C151.484 16.7247 153.287 16.2402 155.067 16.2402C159.7 16.2402 162.017 18.6278 162.017 23.402Z" fill="#3D8FFF"/>
<path fill-rule="evenodd" clip-rule="evenodd" d="M3.49674 34.9811C2.53072 34.6747 1.36514 34.1557 0 33.4247V30.6651C0.847455 31.3727 1.91246 31.9564 3.19661 32.4165C4.47918 32.8761 5.91048 33.1061 7.48841 33.1061C9.20714 33.1061 10.4908 32.7409 11.3382 32.0099C12.1862 31.2789 12.6102 30.2882 12.6102 29.0382C12.6102 28.1185 12.363 27.3578 11.8681 26.7562C11.3737 26.1551 10.7851 25.6838 10.1022 25.3414C9.41887 25 8.39462 24.569 7.02895 24.0501C5.56853 23.555 4.4093 23.0837 3.54968 22.6353C2.69005 22.1879 1.95428 21.5274 1.34185 20.6543C0.728885 19.7823 0.423463 18.6262 0.423463 17.1875C0.423463 16.2212 0.664307 15.2776 1.14811 14.3579C1.63033 13.4377 2.40686 12.6722 3.47927 12.0584C4.55011 11.4456 5.93377 11.1387 7.62974 11.1387C8.87737 11.1387 9.89579 11.2569 10.685 11.4922C11.4737 11.7287 12.516 12.1644 13.8112 12.801V15.4192C13.6461 15.3248 13.2046 15.0714 12.4863 14.6585C11.768 14.2461 11.0264 13.9455 10.261 13.7563C9.49562 13.5675 8.66563 13.4732 7.77054 13.4732C6.14603 13.4732 4.94499 13.8098 4.16793 14.4814C3.39088 15.1536 3.00182 15.9969 3.00182 17.011C3.00182 17.9302 3.20773 18.6734 3.62008 19.2395C4.03242 19.8056 4.58557 20.2652 5.28058 20.6188C5.97506 20.9729 6.95855 21.362 8.23 21.7861C9.68988 22.2817 10.8846 22.7715 11.8157 23.2544C12.7457 23.7384 13.5402 24.428 14.1998 25.3239C14.8588 26.2203 15.1891 27.3637 15.1891 28.7552C15.1891 30.6184 14.5708 32.1986 13.3343 33.4952C12.0978 34.7929 10.1139 35.4412 7.38254 35.4412C5.7575 35.4412 4.46171 35.2875 3.49674 34.9811Z" fill="#3D8FFF"/>
<mask id="mask0" mask-type="alpha" maskUnits="userSpaceOnUse" x="0" y="0" width="241" height="41">
<path d="M0 40.5042H241V0H0V40.5042Z" fill="white"/>
</mask>
<g mask="url(#mask0)">
<path fill-rule="evenodd" clip-rule="evenodd" d="M18.3788 35.4412H21.1128V17.2598H18.3788V35.4412ZM18.2269 14.0171H21.2647V11.1387H18.2269V14.0171Z" fill="#3D8FFF"/>
<path fill-rule="evenodd" clip-rule="evenodd" d="M27.5795 34.2374C26.7587 33.4349 26.3488 32.2909 26.3488 30.8049V19.5909H23.2899V17.2189H26.3488V12.1512H28.8808V17.2189H33.416V19.5909H28.8808V29.9782C28.8808 31.0328 29.0442 31.7997 29.3724 32.2785C29.7006 32.7579 30.3102 32.9976 31.2011 32.9976C32.0683 32.9976 32.8064 32.8538 33.416 32.5661V35.0103C33.0872 35.1304 32.6715 35.2316 32.1679 35.3157C31.6637 35.3992 31.189 35.4412 30.7438 35.4412C29.4546 35.4412 28.3998 35.0404 27.5795 34.2374Z" fill="#3D8FFF"/>
<path fill-rule="evenodd" clip-rule="evenodd" d="M39.8521 20.7643C39.0117 21.5124 38.4807 22.8426 38.2585 24.7555H48.8223C48.699 23.0394 48.2113 21.7577 47.3587 20.9115C46.506 20.0653 45.239 19.642 43.5593 19.642C41.9279 19.642 40.692 20.0163 39.8521 20.7643ZM49.7494 19.9369C51.0592 21.7516 51.6891 24.1673 51.6402 27.1838H38.1474C38.1474 29.391 38.6662 31.0828 39.7038 32.2603C40.742 33.4372 42.2245 34.026 44.152 34.026C46.6227 34.026 48.7357 33.499 50.4904 32.4439V35.1665C48.6862 36.0249 46.5244 36.4537 44.0042 36.4537C41.3102 36.4537 39.2094 35.6263 37.7025 33.9709C36.1949 32.3154 35.4412 29.8937 35.4412 26.7053C35.4412 23.5912 36.151 21.2307 37.5725 19.6238C38.9934 18.018 40.9886 17.2142 43.5593 17.2142C46.3761 17.2142 48.4391 18.1222 49.7494 19.9369Z" fill="#3D8FFF"/>
<path fill-rule="evenodd" clip-rule="evenodd" d="M229.822 9.44999C228.748 7.80562 227.357 6.49405 225.647 5.51638C223.938 4.53925 221.862 4.05042 219.422 4.05042C216.98 4.05042 214.896 4.53925 213.171 5.51638C211.581 6.41658 210.265 7.60485 209.215 9.07136L203.68 16.7683L203.534 17.0128C203.859 16.8829 204.249 16.7853 204.704 16.7192C205.158 16.6549 205.581 16.6216 205.971 16.6216C207.465 16.6216 208.904 16.8906 210.285 17.4285C211.666 17.9659 212.867 18.7313 213.891 19.7248C214.037 19.8661 214.178 20.0129 214.315 20.1624C214.346 19.6637 214.387 19.1503 214.441 18.6124C214.57 17.3101 214.822 16.0957 215.197 14.9718C215.571 13.8479 216.101 12.9035 216.784 12.1375C217.468 11.3726 218.347 10.9891 219.422 10.9891C220.496 10.9891 221.366 11.3726 222.034 12.1375C222.7 12.9035 223.213 13.8479 223.572 14.9718C223.929 16.0957 224.174 17.3101 224.304 18.6124C224.434 19.9158 224.499 21.1046 224.499 22.1799C224.499 23.2874 224.434 24.5008 224.304 25.82C224.174 27.1392 223.929 28.3613 223.572 29.4852C223.213 30.6091 222.7 31.5546 222.034 32.3189C221.366 33.0854 220.496 33.4674 219.422 33.4674C218.347 33.4674 217.468 33.0854 216.784 32.3189C216.729 32.2573 216.677 32.1923 216.623 32.128C216.5 32.4897 216.364 32.8443 216.207 33.1875C215.492 34.7511 214.517 36.0703 213.283 37.1456C212.85 37.5221 212.39 37.8658 211.906 38.1806C212.307 38.4807 212.728 38.7589 213.171 39.0137C214.896 40.0072 216.98 40.5042 219.422 40.5042C221.862 40.5042 223.938 40.0072 225.647 39.0137C227.357 38.0207 228.748 36.6852 229.822 35.007C230.897 33.3299 231.678 31.3832 232.166 29.1677C232.654 26.9526 232.899 24.623 232.899 22.1799C232.899 19.7363 232.654 17.4149 232.166 15.2162C231.678 13.0175 230.897 11.0954 229.822 9.44999Z" fill="#3D8FFF"/>
<path fill-rule="evenodd" clip-rule="evenodd" d="M200.496 6.97445C200.496 6.97445 197.286 8.6533 194.562 6.6593C194.439 6.56949 194.32 6.47436 194.195 6.38667C193.066 5.59215 191.784 5.00384 190.35 4.62225C188.915 4.24121 187.439 4.05042 185.925 4.05042C184.505 4.05042 183.119 4.23323 181.765 4.59781C180.411 4.96291 179.161 5.5018 178.016 6.21607C176.872 6.92981 175.88 7.81892 175.042 8.88129C174.204 9.94526 173.574 11.1904 173.155 12.6184L180.701 14.3318C180.958 13.1892 181.515 12.2778 182.37 11.5949C183.224 10.913 184.232 10.5718 185.392 10.5718C186.521 10.5718 187.52 10.8912 188.391 11.5295C189.261 12.1678 189.697 13.0941 189.697 14.3074C189.697 15.1375 189.527 15.8082 189.189 16.3189C188.851 16.8302 188.399 17.2373 187.835 17.5402C187.27 17.8442 186.633 18.0515 185.925 18.1631C185.215 18.2747 184.473 18.3305 183.7 18.3305H181.33V24.1376H183.506C184.344 24.1376 185.183 24.2088 186.021 24.3518C186.859 24.4948 187.609 24.7328 188.27 25.0661C188.892 25.3796 189.396 25.8027 189.79 26.3277C189.904 24.7924 190.24 23.3713 190.806 22.0671C191.515 20.4334 192.433 18.7753 193.56 17.0927" fill="#3D8FFF"/>
<path fill-rule="evenodd" clip-rule="evenodd" d="M190.654 33.3055C190.343 32.6299 190.105 31.9169 189.932 31.1713C189.909 31.2169 189.892 31.2668 189.868 31.3108C189.564 31.8626 189.18 32.3084 188.717 32.6489C188.253 32.9889 187.725 33.2403 187.134 33.4027C186.542 33.5656 185.958 33.6454 185.383 33.6454C183.848 33.6454 182.584 33.2164 181.593 32.3568C180.601 31.4982 179.946 30.5011 179.626 29.3656L172.143 31.3597C172.59 32.9818 173.262 34.3677 174.158 35.5184C175.053 36.6697 176.1 37.6103 177.299 38.3396C178.499 39.069 179.825 39.612 181.282 39.9688C182.736 40.3256 184.232 40.5043 185.767 40.5043C187.333 40.5043 188.877 40.2854 190.396 39.8482C191.883 39.4203 193.224 38.7741 194.42 37.9106C194.112 37.6863 193.814 37.449 193.528 37.1965C192.315 36.1261 191.357 34.8298 190.654 33.3055Z" fill="#3D8FFF"/>
<path fill-rule="evenodd" clip-rule="evenodd" d="M204.04 22.2773C200.964 22.2773 198.471 24.7708 198.471 27.8464C198.471 30.9226 200.964 33.416 204.04 33.416C207.116 33.416 209.609 30.9226 209.609 27.8464C209.609 24.7708 207.116 22.2773 204.04 22.2773Z" fill="#3D8FFF"/>
<path fill-rule="evenodd" clip-rule="evenodd" d="M235.937 2.25695C234.39 2.25695 233.131 3.51542 233.131 5.06302C233.131 6.61009 234.39 7.8691 235.937 7.8691C237.485 7.8691 238.743 6.61009 238.743 5.06302C238.743 3.51542 237.485 2.25695 235.937 2.25695ZM235.937 10.126C233.145 10.126 230.874 7.85454 230.874 5.06302C230.874 2.27151 233.145 0 235.937 0C238.729 0 241 2.27151 241 5.06302C241 7.85454 238.729 10.126 235.937 10.126Z" fill="#3D8FFF"/>
</g>
</svg>
